<svg xmlns="http://www.w3.org/2000/svg" width="614" height="223" viewBox="0 0 614 223">
  <defs>
    <style>
      .cls-1 {
        fill: #782f40;
        fill-rule: evenodd;
      }
    </style>
  </defs>
  <path id="Ember_Coast_University" data-name="Ember Coast University" class="cls-1" d="M-0.214,100.279H43.047a17.006,17.006,0,0,1,6.431.891,4.258,4.258,0,0,1,2.533,3.056h4.807V78.5H52.271a38.3,38.3,0,0,1-2.339,10.569,8.634,8.634,0,0,1-4.742,4.839,25.2,25.2,0,0,1-9.029,1.273H22.131V52.526h3.378q4.677,0,6.82,2.165t2.144,7H39.28V38.264H34.473q0,9.168-8.964,9.169H22.131V9.867h8.7a32.483,32.483,0,0,1,9.159,1.019,10.237,10.237,0,0,1,5.456,4.075A40.58,40.58,0,0,1,49.8,24.129l4.417-1.146L48.5-.066H44.087A5.82,5.82,0,0,1,42.4,3.691a6.712,6.712,0,0,1-4.287,1.082H-0.214V9.485q4.156,0,5.976,1.273a4.77,4.77,0,0,1,1.819,4.2V90.091a4.765,4.765,0,0,1-1.819,4.2Q3.942,95.568-.214,95.567v4.712Zm65.476-5.922q-1.69,1.212-6.106,1.21v4.712H80.462V95.567q-4.418,0-6.106-1.21t-1.689-4.266V41.957l19.487,58.322h5.327L113.85,42.084V90.091q0,3.056-1.689,4.266t-6.106,1.21v4.712H134.9V95.567q-4.419,0-6.106-1.21T127.1,90.091V41.32q0-3.056,1.689-4.266t6.106-1.21v-4.33H111.252L97.871,78.121,82.151,31.515H59.157v4.712q4.156,0,5.976,1.273a4.77,4.77,0,0,1,1.819,4.2V90.091Q66.951,93.148,65.263,94.357Zm73.27,5.922h31.959q12.083,0,17.863-4.585t5.781-14.135q0-6.62-2.988-10.824t-9.484-6.494q5.067-2.928,6.886-6.3t1.819-9.36A14.682,14.682,0,0,0,184.2,36.035q-6.173-4.519-16.954-4.521H138.533v4.712q4.157,0,5.976,1.273a4.77,4.77,0,0,1,1.819,4.2V90.091a4.765,4.765,0,0,1-1.819,4.2q-1.821,1.274-5.976,1.273v4.712Zm35.791-61.187a9.9,9.9,0,0,1,2.534,7.195v5.221q0,5.859-2.274,8.6t-7.21,2.738h-1.819v4.712h4.937a9.007,9.007,0,0,1,6.95,2.738,10.544,10.544,0,0,1,2.534,7.449v7.768a9.8,9.8,0,0,1-2.6,7.131,9.163,9.163,0,0,1-6.885,2.674H160.359V36.481h7.015A9.24,9.24,0,0,1,174.324,39.092Zm22.93,61.187h42.352a25.707,25.707,0,0,1,6.5.573,3.371,3.371,0,0,1,2.469,2.1h4.417V78.5H248.7a41.442,41.442,0,0,1-2.274,10.633,8.406,8.406,0,0,1-4.677,4.9,25.2,25.2,0,0,1-9.029,1.273H219.209V68.826h9.354q5.067,0,5.067,7.768h4.157V57.238H233.63q0,6.623-5.067,6.622h-9.354V36.481h9.224a31.892,31.892,0,0,1,9.029,1.019,10.149,10.149,0,0,1,5.456,4.139,45.871,45.871,0,0,1,4.482,9.232l4.288-1.146L246.361,29.1h-4.287a2.2,2.2,0,0,1-1.559,1.846,14.225,14.225,0,0,1-4.807.573H197.254v4.712q4.157,0,5.976,1.273a4.77,4.77,0,0,1,1.819,4.2V90.091a4.765,4.765,0,0,1-1.819,4.2q-1.821,1.274-5.976,1.273v4.712Zm58.331,0h29.88V95.567q-4.159,0-5.976-1.273a4.76,4.76,0,0,1-1.819-4.2V36.481h8.574a8.268,8.268,0,0,1,6.886,3.375q2.6,3.376,2.6,8.978v6.494a14.617,14.617,0,0,1-2.6,9.041,8.212,8.212,0,0,1-6.886,3.438h-3.377v4.712H285.6q3.766,0,6.625,4.011a15.933,15.933,0,0,1,2.859,9.487q0,7.387,4.482,10.824t13.965,3.438H314.7V95.567h-0.779q-2.338,0-3.962-2.8a13.222,13.222,0,0,1-1.624-6.749q0-11.461-10.913-15.917,6.236-3.056,9.094-7.067a15.929,15.929,0,0,0,2.858-9.487q0-11.332-5.586-16.682t-17.539-5.348H255.585v4.712q4.156,0,5.976,1.273a4.77,4.77,0,0,1,1.819,4.2V90.091a4.765,4.765,0,0,1-1.819,4.2q-1.821,1.274-5.976,1.273v4.712ZM347.239,10.44q-6.562,6.942-6.561,20.311V74.3q0,12.735,6.366,19.993t17.668,7.258q10.913,0,16.174-6.685T386.148,74.3V74.174h-5.587v2.037q0,8.787-3.767,14.071a11.6,11.6,0,0,1-9.874,5.285A10.944,10.944,0,0,1,358.541,92a12.757,12.757,0,0,1-3.313-9.041V22.092a13.665,13.665,0,0,1,3.573-9.614,11.453,11.453,0,0,1,8.769-3.884,11.746,11.746,0,0,1,5.781,1.273,13.018,13.018,0,0,1,4.352,4.584,59.549,59.549,0,0,1,4.547,9.678l4.417-1.146L380.951-.066h-4.417a5.562,5.562,0,0,1-3.118,2.8A22.55,22.55,0,0,1,366.4,3.5Q353.8,3.5,347.239,10.44Zm52.225,26.041q-6.432,6.876-6.431,20.375V74.938q0,13.245,6.5,20.247t18.707,7q24.944,0,24.943-27.251V56.856q0-12.989-6.495-20.12T418.236,29.6Q405.893,29.6,399.464,36.481Zm11.042,57.431a12.787,12.787,0,0,1-2.923-8.786V46.8a12.8,12.8,0,0,1,3.053-8.723,10.129,10.129,0,0,1,15.265-.064,12.916,12.916,0,0,1,2.988,8.786v38.33a12.672,12.672,0,0,1-2.988,8.723A10.534,10.534,0,0,1,410.506,93.912Zm50.861-12.1h20.786l2.728,8.532q1.688,5.223-7.924,5.221v4.712h29.88V95.567q-4.029,0-5.457-1.019t-2.6-4.329L478.516,31.006H472.28L452.793,89.964a7.759,7.759,0,0,1-2.728,4.33,9.263,9.263,0,0,1-5.327,1.273v4.712h21.7V95.567q-4.419,0-6.561-1.528a3.218,3.218,0,0,1-1.234-4.075Zm10.653-31.58,8.574,26.741H463.056Zm47.548-17.382a22.168,22.168,0,0,0-7.795,6.94,16.054,16.054,0,0,0-2.988,9.3q0,10.953,12.862,17.828l11.432,6.24q9.091,4.966,9.094,11.715a9.532,9.532,0,0,1-1.689,5.348,14.035,14.035,0,0,1-4.352,4.2,10.526,10.526,0,0,1-5.651,1.655A14.178,14.178,0,0,1,519.243,90.6q-4.613-5.474-6.43-15.536H508.4v25.214h4.547q0.906-2.293,3.9-2.292a6.979,6.979,0,0,1,3.053.891,28.958,28.958,0,0,0,4.742,1.783,28.023,28.023,0,0,0,7.795.891,25.533,25.533,0,0,0,11.5-2.547,21.475,21.475,0,0,0,8.184-6.876,16.211,16.211,0,0,0,3.053-9.551,21.13,21.13,0,0,0-11.692-19.356l-14.03-7.513a20.812,20.812,0,0,1-6.5-4.9,9.391,9.391,0,0,1-1.819-5.921A8.814,8.814,0,0,1,524.05,38.2,9.823,9.823,0,0,1,531,35.462a11.694,11.694,0,0,1,8.64,3.311q3.312,3.313,6.56,12.1l4.417-1.146-5.326-20.5h-4.417a2.371,2.371,0,0,1-1.754,1.783,11.031,11.031,0,0,1-3.248-.318,31.475,31.475,0,0,0-6.041-.446A21.192,21.192,0,0,0,519.568,32.852Zm50.666,67.427h29.88V95.567q-4.159,0-5.976-1.273a4.76,4.76,0,0,1-1.819-4.2V36.481h2.469a14.561,14.561,0,0,1,6.625,1.273,10.231,10.231,0,0,1,4.222,4.966A74.794,74.794,0,0,1,609.468,53.8l4.417-1.146L609.468,28.2h-4.027q-0.39,3.313-5.976,3.311H571.144q-5.588,0-5.976-3.311H561.14l-4.417,24.449L561.14,53.8a74.56,74.56,0,0,1,3.833-11.079,10.221,10.221,0,0,1,4.222-4.966,14.553,14.553,0,0,1,6.625-1.273h2.209v53.61a4.765,4.765,0,0,1-1.819,4.2q-1.821,1.274-5.976,1.273v4.712ZM41.488,130.758a4.772,4.772,0,0,1,1.819,4.2V194.3q0,13.118,6.691,20.184t19.032,7.067q21.953,0,21.955-27.251v-59.34a4.767,4.767,0,0,1,1.819-4.2q1.818-1.27,5.976-1.273v-4.712h-21.7v4.712q4.156,0,5.976,1.273a4.771,4.771,0,0,1,1.819,4.2v61.25q0,8.787-3.767,14.071a11.6,11.6,0,0,1-9.873,5.285,12.405,12.405,0,0,1-9.743-4.075q-3.639-4.074-3.638-11.078V134.961a4.767,4.767,0,0,1,1.819-4.2q1.818-1.27,5.976-1.273v-4.712H35.512v4.712Q39.668,129.485,41.488,130.758Zm65.217,83.6q-1.69,1.212-6.106,1.21v4.712h21.3v-4.712q-4.417,0-6.1-1.21t-1.689-4.266V162.975l36.115,57.3h5.847V161.7q0-3.055,1.688-4.266t6.106-1.21v-4.711H142.561v4.711q4.414,0,6.106,1.21t1.688,4.266v33.873l-27.931-44.06H100.6v4.711q4.155,0,5.976,1.274a4.768,4.768,0,0,1,1.818,4.2v48.389Q108.393,213.148,106.705,214.357Zm60.279,5.922h29.88v-4.712q-4.16,0-5.976-1.273a4.762,4.762,0,0,1-1.819-4.2V161.7a4.763,4.763,0,0,1,1.819-4.2q1.818-1.272,5.976-1.274v-4.711h-29.88v4.711q4.156,0,5.976,1.274a4.768,4.768,0,0,1,1.819,4.2v48.389a4.767,4.767,0,0,1-1.819,4.2q-1.821,1.273-5.976,1.273v4.712Zm64.957-17.446-12.992-41.768q-1.559-5.22,7.925-5.221v-4.329h-29.75v4.329a10.027,10.027,0,0,1,5.391,1.146,7.26,7.26,0,0,1,2.664,4.2l20.266,60.868h6.236l19.487-60.614a8.351,8.351,0,0,1,2.858-4.329,9,9,0,0,1,5.2-1.274v-4.329H237.527v4.329q4.547,0,6.626,1.529a3.245,3.245,0,0,1,1.169,4.074Zm27.541,17.446h42.352a25.716,25.716,0,0,1,6.5.573,3.369,3.369,0,0,1,2.468,2.1h4.417V198.5h-4.287a41.436,41.436,0,0,1-2.274,10.633,8.4,8.4,0,0,1-4.677,4.9,25.185,25.185,0,0,1-9.028,1.273H281.438V188.826h9.353q5.067,0,5.067,7.767h4.157V177.238h-4.157q0,6.623-5.067,6.621h-9.353V156.481h9.223a31.872,31.872,0,0,1,9.029,1.019,10.149,10.149,0,0,1,5.457,4.138,45.9,45.9,0,0,1,4.482,9.233l4.287-1.146-5.327-20.63H304.3a2.2,2.2,0,0,1-1.559,1.847,14.218,14.218,0,0,1-4.806.573H259.482v4.711q4.156,0,5.976,1.274a4.768,4.768,0,0,1,1.819,4.2v48.389a4.767,4.767,0,0,1-1.819,4.2q-1.821,1.273-5.976,1.273v4.712Zm58.331,0h29.88v-4.712q-4.159,0-5.976-1.273a4.762,4.762,0,0,1-1.819-4.2v-53.61h8.575a8.265,8.265,0,0,1,6.885,3.375q2.6,3.375,2.6,8.977v6.5a14.61,14.61,0,0,1-2.6,9.041,8.211,8.211,0,0,1-6.885,3.438H345.1v4.711h2.728q3.767,0,6.626,4.012a15.931,15.931,0,0,1,2.858,9.487q0,7.386,4.482,10.823t13.965,3.439h1.17v-4.712h-0.78q-2.339,0-3.962-2.8a13.224,13.224,0,0,1-1.624-6.749q0-11.461-10.913-15.918,6.236-3.055,9.094-7.067a15.931,15.931,0,0,0,2.858-9.487q0-11.332-5.586-16.682t-17.538-5.348h-30.66v4.711q4.157,0,5.976,1.274a4.768,4.768,0,0,1,1.819,4.2v48.389a4.767,4.767,0,0,1-1.819,4.2q-1.821,1.273-5.976,1.273v4.712Zm73.531-67.427a22.16,22.16,0,0,0-7.8,6.94,16.054,16.054,0,0,0-2.988,9.3q0,10.953,12.862,17.827l11.432,6.24q9.091,4.967,9.094,11.715a9.54,9.54,0,0,1-1.689,5.349,14.044,14.044,0,0,1-4.352,4.2,10.528,10.528,0,0,1-5.651,1.655,14.176,14.176,0,0,1-11.238-5.475q-4.612-5.474-6.431-15.536h-4.417v25.214h4.547q0.907-2.292,3.9-2.292a6.984,6.984,0,0,1,3.053.891,28.95,28.95,0,0,0,4.742,1.783,28.02,28.02,0,0,0,7.794.891,25.53,25.53,0,0,0,11.5-2.547,21.471,21.471,0,0,0,8.184-6.876,16.212,16.212,0,0,0,3.053-9.551,21.127,21.127,0,0,0-11.692-19.355l-14.031-7.513a20.8,20.8,0,0,1-6.5-4.9,9.392,9.392,0,0,1-1.819-5.921,8.815,8.815,0,0,1,2.923-6.686,9.825,9.825,0,0,1,6.95-2.738,11.692,11.692,0,0,1,8.639,3.311q3.314,3.314,6.561,12.1l4.417-1.146-5.326-20.5H412.65a2.369,2.369,0,0,1-1.754,1.782,10.994,10.994,0,0,1-3.248-.318,31.51,31.51,0,0,0-6.041-.446A21.19,21.19,0,0,0,391.344,152.852Zm40.273,67.427H461.5v-4.712q-4.16,0-5.976-1.273a4.762,4.762,0,0,1-1.819-4.2V161.7a4.763,4.763,0,0,1,1.819-4.2q1.818-1.272,5.976-1.274v-4.711h-29.88v4.711q4.156,0,5.976,1.274a4.768,4.768,0,0,1,1.819,4.2v48.389a4.767,4.767,0,0,1-1.819,4.2q-1.821,1.273-5.976,1.273v4.712Zm43.911,0h29.88v-4.712q-4.16,0-5.976-1.273a4.762,4.762,0,0,1-1.819-4.2v-53.61h2.468a14.563,14.563,0,0,1,6.626,1.274,10.229,10.229,0,0,1,4.222,4.966,74.814,74.814,0,0,1,3.832,11.078l4.417-1.146L514.761,148.2h-4.027q-0.39,3.314-5.976,3.311H476.437q-5.588,0-5.976-3.311h-4.027l-4.417,24.449,4.417,1.146a74.58,74.58,0,0,1,3.832-11.078,10.219,10.219,0,0,1,4.222-4.966,14.549,14.549,0,0,1,6.626-1.274h2.208v53.61a4.769,4.769,0,0,1-1.818,4.2q-1.821,1.273-5.976,1.273v4.712Zm56.772,0h29.879v-4.712q-4.158,0-5.976-1.273a4.764,4.764,0,0,1-1.818-4.2V194.3l13.641-32.854a10.145,10.145,0,0,1,3.117-4.457,8.8,8.8,0,0,1,4.937-1.146v-4.329H554v4.329q4.8,0,6.82,1.465t0.975,4.138l-11.3,27-12.341-27.251q-0.91-2.165,1.429-3.757a11.173,11.173,0,0,1,6.365-1.592v-4.329H516.06v4.329a8.2,8.2,0,0,1,4.742,1.083,11.562,11.562,0,0,1,3.053,4.393l16.239,35.019v13.752a4.769,4.769,0,0,1-1.818,4.2q-1.821,1.273-5.976,1.273v4.712Z"/>
</svg>
