<svg xmlns="http://www.w3.org/2000/svg" width="427" height="97" viewBox="0 0 427 97">
  <defs>
    <style>
      .cls-1 {
        fill: #fbf5f1;
      }

      .cls-2 {
        fill: #782f40;
        fill-rule: evenodd;
      }
    </style>
  </defs>
  <rect class="cls-1" x="0.063" width="426.938" height="96.063" rx="35" ry="35"/>
  <path id="Returning_Students" data-name="Returning Students" class="cls-2" d="M34.017,66.631V28.258H31.038v-5.52H48.046l4.929,5.52V47.1l-3.9,4.936,7.8,14.6h2.762v5.52H47.016v-5.52h2.925L42.412,52.672h-2V66.631h3.412v5.52H31.038v-5.52h2.979Zm6.392-38.373V47.1h6.121V28.258H40.408ZM69.379,55.114H66.4v12.9h5.308V62.385h4.279v9.766H59.413v-4.14H61.58V39.191H59.359v-4.14h16.3V44.6H71.384V39.191H66.4V50.974h2.979V48.267h4.6v9.394h-4.6V55.114Zm13.428,12.9h2.221V39.191H81.562V44.6H77.283V35.052H97.595V44.6H93.316V39.191H89.849v28.82h2.6v4.14H82.808v-4.14Zm24.64-28.82h-2.221v28.82h8.558V39.191h-2.221v-4.14h9.262v4.14h-2.22v28.82l-3.521,4.14H104.144l-3.738-4.14V39.191H98.185v-4.14h9.263v4.14Zm16.676,28.82V39.191H121.9v-4.14h12.783l3.683,4.14V53.362l-2.925,3.662,5.85,10.987h2.058v4.14h-9.479v-4.14H136.1L130.462,57.5h-1.517V68.011h2.546v4.14H121.9v-4.14h2.22Zm4.821-28.82V53.362h4.6V39.191h-4.6Zm21.715-4.14,6.825,21.654V39.191h-2.6v-4.14h9.587v4.14H162.36V72.151h-4.875l-7.529-23.937v19.8h2.221v4.14h-9.263v-4.14h2.221V39.191h-2.221v-4.14h7.746Zm14.673,32.959h2.221V39.191h-2.221v-4.14H174.6v4.14h-2.22v28.82h2.22v4.14h-9.262v-4.14ZM183.8,35.052l6.825,21.654V39.191h-2.6v-4.14h9.587v4.14H195.5V72.151h-4.874L183.1,48.214v19.8h2.22v4.14h-9.262v-4.14h2.221V39.191h-2.221v-4.14H183.8Zm30.922,15.763v17.2l-3.52,4.14h-9.046l-3.683-4.14V39.191l3.683-4.14H211.2l3.52,4.14V44.6H209.9V39.191H203.24v28.82H209.9V54.954h-3.088v-4.14h7.908Zm15.754,8.333h6.446v7.483h8.612V49.276l-11.591-2.441-3.467-4.3V28.258l4.983-5.52h11.754l4.659,5.52v7.218h-6.338V28.258h-8.612V41.314L248.514,43.7l3.359,3.875V66.631l-4.659,5.52H235.46l-4.983-5.52V59.147Zm28.81,8.864h2.221V39.191h-3.467V44.6h-4.279V35.052h20.312V44.6H269.8V39.191h-3.466v28.82h2.6v4.14h-9.642v-4.14Zm24.64-28.82h-2.221v28.82h8.558V39.191h-2.22v-4.14h9.262v4.14h-2.221v28.82l-3.521,4.14H280.623l-3.737-4.14V39.191h-2.221v-4.14h9.262v4.14ZM300.6,68.011V39.191h-2.221v-4.14h13.325l3.683,4.14v28.82l-3.3,4.14h-13.7v-4.14H300.6Zm4.821-28.82v28.82h5.145V39.191h-5.145Zm21.119,15.922h-2.979v12.9h5.309V62.385h4.279v9.766H316.578v-4.14h2.167V39.191h-2.221v-4.14h16.3V44.6h-4.279V39.191h-4.984V50.974h2.979V48.267h4.6v9.394h-4.6V55.114Zm15.65-20.062,6.824,21.654V39.191h-2.6v-4.14h9.588v4.14h-2.113V72.151h-4.875l-7.529-23.937v19.8h2.221v4.14h-9.262v-4.14h2.221V39.191h-2.221v-4.14h7.746Zm20.2,32.959h2.22V39.191h-3.466V44.6h-4.279V35.052h20.312V44.6H372.9V39.191h-3.467v28.82h2.6v4.14h-9.641v-4.14Zm15.377-5.626h4.821v5.626h6.5V54.954l-8.721-1.8-2.6-3.238V39.191l3.737-4.14h8.829l3.467,4.14V44.6H389.09V39.191h-6.5V49.01l8.72,1.8,2.492,2.866v14.33l-3.467,4.14h-8.829l-3.737-4.14V62.385Z"/>
</svg>
