<svg id="SidebarTabs" xmlns="http://www.w3.org/2000/svg" width="404" height="495" viewBox="0 0 404 495">
  <defs>
    <style>
      .cls-1 {
        fill: #dac8a3;
      }

      .cls-1, .cls-2 {
        fill-rule: evenodd;
      }

      .cls-2 {
        fill: #1a1919;
      }
    </style>
  </defs>
  <g id="Social">
    <path id="Social_Inactive_" data-name="Social (Inactive)" class="cls-1" d="M125.805,495.778a22.34,22.34,0,0,0,10.139-2.152,15.686,15.686,0,0,0,6.482-5.669,14.125,14.125,0,0,0,2.2-7.617,13.3,13.3,0,0,0-1.742-7.07,13.494,13.494,0,0,0-4.67-4.577,42.373,42.373,0,0,0-7.317-3.313l-8.433-3a9.1,9.1,0,0,1-3.519-1.981,4.557,4.557,0,0,1-1.15-3.348,4.923,4.923,0,0,1,2.091-4.064,9.05,9.05,0,0,1,5.645-1.605,14.6,14.6,0,0,1,8.99,3.552,0.5,0.5,0,0,1,.1.649,2.214,2.214,0,0,1-.522.785L135,457.32l8.641-8.334-0.906-.888a3.118,3.118,0,0,1-.732.512,1.755,1.755,0,0,1-.8.239,0.408,0.408,0,0,1-.279-0.068,33.153,33.153,0,0,0-7.073-4.474,20.2,20.2,0,0,0-8.189-1.469,21.677,21.677,0,0,0-9.06,1.776,13.7,13.7,0,0,0-6.028,5.089,14.048,14.048,0,0,0-2.125,7.753,11.127,11.127,0,0,0,2.892,7.719,19.324,19.324,0,0,0,8.049,5.055l8.572,3.143q7.177,2.6,7.178,6.626a5.516,5.516,0,0,1-1.185,3.313,8.719,8.719,0,0,1-3.31,2.63,10.859,10.859,0,0,1-4.774,1.024q-7.666,0-14.147-8.06a0.833,0.833,0,0,1,.14-0.888,3.339,3.339,0,0,1,.766-0.957l-0.906-.956-9.687,8.949,0.906,0.956a2.137,2.137,0,0,1,1.394-.752,0.478,0.478,0,0,1,.348.137,42.292,42.292,0,0,0,9.966,7.617,23.224,23.224,0,0,0,11.151,2.766h0Zm39.932-.478a17.953,17.953,0,0,0,9.338-2.357A15.909,15.909,0,0,0,181.1,486.8a16.606,16.606,0,0,0,2.055-8.026,16.122,16.122,0,0,0-8.571-14.584,19.438,19.438,0,0,0-17.911.068,15.905,15.905,0,0,0-6.167,6.046,16.712,16.712,0,0,0-2.2,8.47,16.469,16.469,0,0,0,2.2,8.47,15.611,15.611,0,0,0,6.132,5.909,18.656,18.656,0,0,0,9.095,2.152h0Zm0-7.856a9.146,9.146,0,0,1-6.412-2.356,8.142,8.142,0,0,1-2.578-6.319,8.335,8.335,0,0,1,2.578-6.25,8.862,8.862,0,0,1,6.412-2.494,9.036,9.036,0,0,1,6.655,2.528,8.669,8.669,0,0,1,2.544,6.421,7.952,7.952,0,0,1-2.544,6.114,9.4,9.4,0,0,1-6.655,2.356h0Zm37.563,8.471a17.542,17.542,0,0,0,7.561-1.366,18.21,18.21,0,0,0,5.4-4.167q0.418-.41,1.533.2l0.837-.957-7.527-6.148-0.836,1.025a1.331,1.331,0,0,1,.488.888,0.459,0.459,0,0,1-.14.342,10.91,10.91,0,0,1-3,1.947,9.613,9.613,0,0,1-3.415.512,9.1,9.1,0,0,1-6.76-2.6,9.355,9.355,0,0,1-2.579-6.9,8.989,8.989,0,0,1,2.683-6.763,9.2,9.2,0,0,1,6.656-2.6,8.505,8.505,0,0,1,6.9,3.006,0.74,0.74,0,0,1-.035.785,2.143,2.143,0,0,1-.592.786l0.906,0.956,7.526-6.831L218,467.088a2.6,2.6,0,0,1-.592.41,1.458,1.458,0,0,1-.662.2,0.473,0.473,0,0,1-.348-0.137q-2.161-1.911-3.59-2.971a13.013,13.013,0,0,0-3.763-1.81,18.432,18.432,0,0,0-5.61-.752,16.922,16.922,0,0,0-8.432,2.152,15.829,15.829,0,0,0-6.1,6.148,18.448,18.448,0,0,0-2.265,9.256,15.58,15.58,0,0,0,2.265,8.2,16.785,16.785,0,0,0,14.391,8.129h0Zm25.506-38.6a5.172,5.172,0,0,0,3.764-1.5,5.245,5.245,0,0,0,0-7.412,5.115,5.115,0,0,0-3.764-1.537,5.229,5.229,0,0,0-3.8,1.537,5.163,5.163,0,0,0,0,7.412,5.288,5.288,0,0,0,3.8,1.5h0Zm-4.53,7.787v27.324a0.65,0.65,0,0,1-.522.547,2.778,2.778,0,0,1-1.011.2v1.3H234.73v-1.3a2.774,2.774,0,0,1-1.011-.2,0.65,0.65,0,0,1-.522-0.547V465.107a0.649,0.649,0,0,1,.522-0.546,2.756,2.756,0,0,1,1.011-.2v-1.3H222.743v1.3a2.76,2.76,0,0,1,1.011.2,0.649,0.649,0,0,1,.522.546h0Zm54.15-2.049H268.112v4.235a14.05,14.05,0,0,0-11.081-5.055,17.777,17.777,0,0,0-8.5,2.083,16.086,16.086,0,0,0-8.572,14.516,17.453,17.453,0,0,0,2.125,8.744,14.35,14.35,0,0,0,5.994,5.772,19.111,19.111,0,0,0,8.955,2.015,14.594,14.594,0,0,0,11.081-4.645v3.757h10.314v-1.3a2.774,2.774,0,0,1-1.011-.2,0.651,0.651,0,0,1-.523-0.547V465.107a0.65,0.65,0,0,1,.523-0.546,2.756,2.756,0,0,1,1.011-.2v-1.3Zm-20.35,25.07a10.017,10.017,0,0,1-6.934-2.528,9.434,9.434,0,0,1-.07-13.389,10.829,10.829,0,0,1,14.147.069,9.008,9.008,0,0,1,2.753,6.762,8.527,8.527,0,0,1-1.254,4.475,9.3,9.3,0,0,1-3.52,3.347,10.325,10.325,0,0,1-5.122,1.264h0Zm26.97-42.831v47.134a0.65,0.65,0,0,1-.522.547,2.951,2.951,0,0,1-1.081.2v1.3h12.266v-1.3a2.938,2.938,0,0,1-1.08-.2,0.65,0.65,0,0,1-.523-0.547V445.3a0.649,0.649,0,0,1,.523-0.546,2.919,2.919,0,0,1,1.08-.2v-1.3H283.443v1.3a2.931,2.931,0,0,1,1.081.2,0.649,0.649,0,0,1,.522.546h0Z"/>
  </g>
  <g id="My_TomeNet" data-name="My TomeNet">
    <path id="My_Tomenet_Inactive_" data-name="My Tomenet (Inactive)" class="cls-1" d="M61.052,333.3a0.649,0.649,0,0,1,.523-0.546,2.752,2.752,0,0,1,1.01-.2v-1.3H44.257v1.3a2.286,2.286,0,0,1,1.394.41,0.744,0.744,0,0,1,.418.819L31.713,366.018,17.566,333.775a0.853,0.853,0,0,1,.035-0.854,1.224,1.224,0,0,1,1.08-.375v-1.3H0.7v1.3a2.757,2.757,0,0,1,1.011.2,0.649,0.649,0,0,1,.523.546v47.134a0.65,0.65,0,0,1-.523.547,2.947,2.947,0,0,1-1.08.2v1.3H12.9v-1.3a2.943,2.943,0,0,1-1.08-.2,0.65,0.65,0,0,1-.523-0.547V341.153l20.35,43.923,20.419-43.787v39.142a0.65,0.65,0,0,1-.523.547,2.947,2.947,0,0,1-1.08.2v1.3h12.2v-1.3a2.943,2.943,0,0,1-1.08-.2,0.65,0.65,0,0,1-.523-0.547V333.3ZM106,351.058H92.9v1.3a2.553,2.553,0,0,1,1.254.273,0.794,0.794,0,0,1,.488.683,0.276,0.276,0,0,1-.07.2L86.28,369.5l-8.851-16.052a0.705,0.705,0,0,1-.1-0.752,1.075,1.075,0,0,1,1.01-.341v-1.3H65.443v1.3q1.532,0,1.812.478l14.286,25.821L70.182,400.582a2.116,2.116,0,0,1-1.812.547v1.3h13.1v-1.3a2.559,2.559,0,0,1-1.254-.273,0.793,0.793,0,0,1-.488-0.683,0.272,0.272,0,0,1,.07-0.2L104.19,352.9a2.115,2.115,0,0,1,1.812-.546v-1.3Zm61.955-21.176a2.22,2.22,0,0,1-.21.888,0.641,0.641,0,0,1-.557.478H126.561A0.642,0.642,0,0,1,126,330.77a2.234,2.234,0,0,1-.209-0.888H124.47V340.4h1.324a2.238,2.238,0,0,1,.209-0.888,0.643,0.643,0,0,1,.558-0.478h15.61v41.4a0.667,0.667,0,0,1-.557.547,3.234,3.234,0,0,1-1.115.2v1.3h12.823v-1.3a3.217,3.217,0,0,1-1.115-.2,0.666,0.666,0,0,1-.558-0.547v-41.4H167.19a0.642,0.642,0,0,1,.557.478,2.224,2.224,0,0,1,.21.888h1.324V329.882h-1.324ZM188.794,383.3a17.953,17.953,0,0,0,9.338-2.357,15.909,15.909,0,0,0,6.029-6.148,16.606,16.606,0,0,0,2.055-8.026,16.12,16.12,0,0,0-8.572-14.584,19.436,19.436,0,0,0-17.91.068,15.905,15.905,0,0,0-6.167,6.046,16.712,16.712,0,0,0-2.2,8.47,16.469,16.469,0,0,0,2.2,8.47,15.611,15.611,0,0,0,6.132,5.909,18.656,18.656,0,0,0,9.095,2.152h0Zm0-7.856a9.146,9.146,0,0,1-6.412-2.356,8.142,8.142,0,0,1-2.578-6.319,8.335,8.335,0,0,1,2.578-6.25,8.862,8.862,0,0,1,6.412-2.494,9.036,9.036,0,0,1,6.655,2.528,8.669,8.669,0,0,1,2.544,6.421,7.952,7.952,0,0,1-2.544,6.114,9.4,9.4,0,0,1-6.655,2.356h0Zm73.453-11.339a14.9,14.9,0,0,0-3.206-9.905q-3.206-3.825-9.756-3.825a11.6,11.6,0,0,0-5.889,1.5,9.448,9.448,0,0,0-3.868,4.031,11.13,11.13,0,0,0-4.425-4.065,14.411,14.411,0,0,0-6.725-1.468,10.182,10.182,0,0,0-7.109,2.527v-1.844H210.537v1.3a2.76,2.76,0,0,1,1.011.2,0.649,0.649,0,0,1,.522.546v27.324a0.667,0.667,0,0,1-.557.547,3.061,3.061,0,0,1-1.046.2v1.3h12.405v-1.3a3.047,3.047,0,0,1-1.045-.2,0.667,0.667,0,0,1-.558-0.547V364.993a9.577,9.577,0,0,1,1.777-5.431,4.94,4.94,0,0,1,4.008-1.81q3.2,0,4.39,2.357a13.631,13.631,0,0,1,1.185,6.114v14.208a0.65,0.65,0,0,1-.523.547,2.946,2.946,0,0,1-1.08.2v1.3h12.2v-1.3a2.938,2.938,0,0,1-1.08-.2,0.65,0.65,0,0,1-.523-0.547V366.769q0-4.509,1.533-6.763a4.927,4.927,0,0,1,4.321-2.254q5.714,0,5.714,8.471v14.208a0.65,0.65,0,0,1-.522.547,2.95,2.95,0,0,1-1.08.2v1.3H263.85v-1.3a2.942,2.942,0,0,1-1.08-.2,0.65,0.65,0,0,1-.523-0.547V364.105Zm22.858-14.482a17.394,17.394,0,0,0-8.815,2.22,15.6,15.6,0,0,0-6.029,6.182,18.391,18.391,0,0,0-2.16,8.949,17.036,17.036,0,0,0,2.195,8.573,16.177,16.177,0,0,0,6.238,6.148,18.629,18.629,0,0,0,9.338,2.288q8.223,0,13.1-5.738,0.418-.477,1.463.137l0.767-1.025-7.736-5.943-0.836,1.025a1.6,1.6,0,0,1,.418.444,1.049,1.049,0,0,1,.209.58,1.19,1.19,0,0,1-.139.342,8.658,8.658,0,0,1-3.032,2.049,11.383,11.383,0,0,1-4.216.683,10.812,10.812,0,0,1-6.342-1.844,6.629,6.629,0,0,1-2.927-5.123H302.11a19.933,19.933,0,0,0,.209-2.869,18.4,18.4,0,0,0-2.021-8.607,15.156,15.156,0,0,0-5.924-6.182,18,18,0,0,0-9.269-2.289h0Zm-8.432,13.594a7.727,7.727,0,0,1,2.857-4.748,8.608,8.608,0,0,1,5.645-1.946,9.611,9.611,0,0,1,5.889,1.946,6.634,6.634,0,0,1,2.892,4.748H276.673Zm64.115,0.888a13.731,13.731,0,0,0-1.777-6.934,13.024,13.024,0,0,0-5.088-4.952,15.7,15.7,0,0,0-7.77-1.844,14.351,14.351,0,0,0-5.053.922,13.169,13.169,0,0,0-4.286,2.561v-2.8H306.291v1.3a2.76,2.76,0,0,1,1.011.2,0.649,0.649,0,0,1,.522.546v27.324a0.65,0.65,0,0,1-.522.547,2.95,2.95,0,0,1-1.08.2v1.3h12.195v-1.3a2.946,2.946,0,0,1-1.08-.2,0.651,0.651,0,0,1-.523-0.547V366.769q0-4.371,2.2-6.694a7.548,7.548,0,0,1,5.749-2.323,5.958,5.958,0,0,1,5.227,2.493,10.177,10.177,0,0,1,1.742,5.978v14.208a0.65,0.65,0,0,1-.523.547,2.946,2.946,0,0,1-1.08.2v1.3h12.266v-1.3a2.947,2.947,0,0,1-1.081-.2,0.65,0.65,0,0,1-.522-0.547V364.105Zm22.858-14.482a17.4,17.4,0,0,0-8.816,2.22,15.608,15.608,0,0,0-6.028,6.182,18.38,18.38,0,0,0-2.16,8.949,17.026,17.026,0,0,0,2.195,8.573,16.167,16.167,0,0,0,6.237,6.148,18.63,18.63,0,0,0,9.339,2.288q8.221,0,13.1-5.738,0.418-.477,1.464.137l0.766-1.025-7.735-5.943-0.836,1.025a1.613,1.613,0,0,1,.418.444,1.049,1.049,0,0,1,.209.58,1.174,1.174,0,0,1-.14.342,8.654,8.654,0,0,1-3.031,2.049,11.387,11.387,0,0,1-4.216.683,10.812,10.812,0,0,1-6.342-1.844,6.629,6.629,0,0,1-2.927-5.123H380.65a19.792,19.792,0,0,0,.21-2.869,18.4,18.4,0,0,0-2.022-8.607,15.16,15.16,0,0,0-5.923-6.182,18,18,0,0,0-9.269-2.289h0Zm-8.432,13.594a7.727,7.727,0,0,1,2.857-4.748,8.606,8.606,0,0,1,5.645-1.946,9.613,9.613,0,0,1,5.889,1.946,6.634,6.634,0,0,1,2.892,4.748H355.214Zm46.9-13.525a2.145,2.145,0,0,1-.209.922,0.633,0.633,0,0,1-.558.444h-4.529v-7.993a0.635,0.635,0,0,1,.487-0.546,2.493,2.493,0,0,1,.976-0.2v-1.3H386.923v1.3a2.5,2.5,0,0,1,.975.2,0.637,0.637,0,0,1,.488.546v7.993h-3.345a0.633,0.633,0,0,1-.558-0.444,2.145,2.145,0,0,1-.209-0.922H382.95v10.383h1.324a2.155,2.155,0,0,1,.209-0.923,0.635,0.635,0,0,1,.558-0.444h3.345v21.723a0.637,0.637,0,0,1-.488.547,2.512,2.512,0,0,1-.975.2v1.3h11.359v-1.3a2.51,2.51,0,0,1-.976-0.2,0.635,0.635,0,0,1-.487-0.547V358.708h4.529a0.635,0.635,0,0,1,.558.444,2.155,2.155,0,0,1,.209.923h1.324V349.692h-1.324Z"/>
  </g>
  <g id="Campus_Life" data-name="Campus Life">
    <path id="Campus_Life_Inactive_" data-name="Campus Life (Inactive)" class="cls-1" d="M29.622,271.163a27.8,27.8,0,0,0,11.708-2.22,30.2,30.2,0,0,0,9.2-6.865,0.68,0.68,0,0,1,.836,0,4.519,4.519,0,0,1,1.045.615l0.836-1.025L42.863,253.13l-0.906.956a2.223,2.223,0,0,1,.662.649,1.426,1.426,0,0,1,.314.785l-0.139.274a19.309,19.309,0,0,1-5.784,4.406,16.969,16.969,0,0,1-7.387,1.468A17.844,17.844,0,0,1,14.5,253.232a16.171,16.171,0,0,1-2.439-8.709,17.87,17.87,0,0,1,2.3-9.017,16.721,16.721,0,0,1,6.272-6.319,17.147,17.147,0,0,1,8.711-2.288,18.242,18.242,0,0,1,7.7,1.468,22.658,22.658,0,0,1,6.1,4.27,0.455,0.455,0,0,1,.035.649,1.988,1.988,0,0,1-.662.717l0.836,1.024,9.617-7.445-0.836-1.025a3.678,3.678,0,0,1-1.464.615,0.57,0.57,0,0,1-.418-0.137,34.952,34.952,0,0,0-9.164-6.8A26.366,26.366,0,0,0,29.2,217.813a27.849,27.849,0,0,0-13.45,3.313A25.036,25.036,0,0,0,6,230.519a26.822,26.822,0,0,0-3.624,14A26.211,26.211,0,0,0,6,258.15a25.664,25.664,0,0,0,9.9,9.564,28.014,28.014,0,0,0,13.729,3.449h0Zm63.488-32.105H82.8v4.235a14.049,14.049,0,0,0-11.081-5.055,17.781,17.781,0,0,0-8.5,2.083,16.089,16.089,0,0,0-8.572,14.516,17.445,17.445,0,0,0,2.126,8.744,14.349,14.349,0,0,0,5.993,5.772,19.113,19.113,0,0,0,8.955,2.015A14.593,14.593,0,0,0,82.8,266.723v3.757H93.109v-1.3a2.771,2.771,0,0,1-1.01-.2,0.65,0.65,0,0,1-.523-0.547V241.107a0.649,0.649,0,0,1,.523-0.546,2.753,2.753,0,0,1,1.01-.205v-1.3ZM72.76,264.128a10.017,10.017,0,0,1-6.934-2.528,9.432,9.432,0,0,1-.07-13.389,9.8,9.8,0,0,1,7-2.595A9.843,9.843,0,0,1,79.9,248.28a9.009,9.009,0,0,1,2.753,6.762,8.525,8.525,0,0,1-1.254,4.475,9.3,9.3,0,0,1-3.519,3.347,10.329,10.329,0,0,1-5.122,1.264h0Zm77.147-12.023A14.908,14.908,0,0,0,146.7,242.2q-3.206-3.825-9.757-3.825a11.6,11.6,0,0,0-5.888,1.5,9.442,9.442,0,0,0-3.868,4.031,11.13,11.13,0,0,0-4.425-4.065,14.413,14.413,0,0,0-6.726-1.468,10.179,10.179,0,0,0-7.108,2.527v-1.844H98.2v1.3a2.757,2.757,0,0,1,1.011.205,0.649,0.649,0,0,1,.523.546v27.324a0.668,0.668,0,0,1-.558.547,3.057,3.057,0,0,1-1.045.2v1.3h12.4v-1.3a3.043,3.043,0,0,1-1.045-.2,0.666,0.666,0,0,1-.558-0.547V252.993a9.569,9.569,0,0,1,1.777-5.431,4.939,4.939,0,0,1,4.007-1.81q3.206,0,4.391,2.357a13.645,13.645,0,0,1,1.185,6.114v14.208a0.651,0.651,0,0,1-.523.547,2.95,2.95,0,0,1-1.08.2v1.3h12.195v-1.3a2.946,2.946,0,0,1-1.08-.2,0.65,0.65,0,0,1-.522-0.547V254.769q0-4.509,1.533-6.763a4.927,4.927,0,0,1,4.321-2.254q5.713,0,5.714,8.471v14.208a0.65,0.65,0,0,1-.523.547,2.942,2.942,0,0,1-1.08.2v1.3H151.51v-1.3a2.947,2.947,0,0,1-1.081-.2,0.65,0.65,0,0,1-.522-0.547V252.105Zm27.736-13.867a16.817,16.817,0,0,0-10.592,3.689v-2.869H156.806v1.3a2.76,2.76,0,0,1,1.011.205,0.649,0.649,0,0,1,.522.546v47.2a0.65,0.65,0,0,1-.522.547,2.78,2.78,0,0,1-1.011.2v1.3h11.778v-1.3a2.776,2.776,0,0,1-1.011-.2,0.65,0.65,0,0,1-.522-0.547V267.68a15.8,15.8,0,0,0,10.383,3.825,19.269,19.269,0,0,0,9.025-2.049,14.947,14.947,0,0,0,6.133-5.807,18.444,18.444,0,0,0,0-17.453,15.168,15.168,0,0,0-6.1-5.875,18.51,18.51,0,0,0-8.851-2.083h0ZM176.737,264.2a10.182,10.182,0,0,1-5.052-1.264,9.468,9.468,0,0,1-3.554-3.381,8.4,8.4,0,0,1-1.29-4.44,8.977,8.977,0,0,1,2.753-6.8,9.914,9.914,0,0,1,7.143-2.63,9.608,9.608,0,0,1,6.969,2.63,8.954,8.954,0,0,1,2.718,6.728,8.476,8.476,0,0,1-2.787,6.7,10.058,10.058,0,0,1-6.9,2.459h0ZM230.4,241.107a0.649,0.649,0,0,1,.522-0.546,2.756,2.756,0,0,1,1.011-.205v-1.3H220.224v1.3a2.764,2.764,0,0,1,1.011.205,0.649,0.649,0,0,1,.522.546v15.37a7.131,7.131,0,0,1-1.533,4.713,5.638,5.638,0,0,1-4.6,1.845,5.569,5.569,0,0,1-4.738-2.016,7.929,7.929,0,0,1-1.534-4.952v-14.96a0.65,0.65,0,0,1,.523-0.546,2.752,2.752,0,0,1,1.011-.205v-1.3H199.038v1.3a2.76,2.76,0,0,1,1.011.205,0.649,0.649,0,0,1,.522.546v15.506a15.7,15.7,0,0,0,3.415,10.349q3.414,4.134,10.732,4.133a12.831,12.831,0,0,0,8.572-3.142v2.527h8.642v-1.3a2.774,2.774,0,0,1-1.011-.2,0.65,0.65,0,0,1-.522-0.547V241.107Zm20.07,30.4q5.855,0,9.409-2.63t3.554-8.163a8.246,8.246,0,0,0-2.788-6.319,19.167,19.167,0,0,0-7.666-4q-2.649-.819-3.937-1.366a5.068,5.068,0,0,1-1.777-1.093,2.068,2.068,0,0,1-.488-1.434,1.831,1.831,0,0,1,.836-1.64,4.176,4.176,0,0,1,2.3-.546,6.581,6.581,0,0,1,2.544.478,11.015,11.015,0,0,1,2.4,1.434,0.713,0.713,0,0,1,.174.718,1.446,1.446,0,0,1-.383.717l0.976,0.82,6.272-6.968-1.046-.888a1.52,1.52,0,0,1-.488.41,1.373,1.373,0,0,1-.7.205,0.405,0.405,0,0,1-.279-0.069,24.882,24.882,0,0,0-4.879-2.664,12.944,12.944,0,0,0-4.529-.751,10.912,10.912,0,0,0-7.806,2.7,9.2,9.2,0,0,0-2.857,7,7.424,7.424,0,0,0,2.23,5.7q2.229,2.084,7.178,3.381a29.4,29.4,0,0,1,5.471,1.879,2.651,2.651,0,0,1,1.638,2.425q0,3.483-5.367,3.483a9.166,9.166,0,0,1-4.146-.99,20.179,20.179,0,0,1-4.286-3.04,0.658,0.658,0,0,1-.105-0.751,2.808,2.808,0,0,1,.453-0.82l-0.975-.888-6.969,7.787,0.975,0.82a1.773,1.773,0,0,1,1.185-.615,0.48,0.48,0,0,1,.349.137,29.747,29.747,0,0,0,6.655,4.1,17.078,17.078,0,0,0,6.864,1.435h0Zm68.854-10.793a2.48,2.48,0,0,1-.209.922,0.654,0.654,0,0,1-.557.513H296.325V221.3a0.666,0.666,0,0,1,.558-0.546,3.026,3.026,0,0,1,1.045-.205v-1.3H285.384v1.3a3.04,3.04,0,0,1,1.046.205,0.666,0.666,0,0,1,.557.546v47.134a0.65,0.65,0,0,1-.523.547,2.773,2.773,0,0,1-1.01.2v1.3h33.1a0.654,0.654,0,0,1,.557.513,2.48,2.48,0,0,1,.209.922h1.324v-11.2h-1.324Zm12.266-27.392a5.171,5.171,0,0,0,3.763-1.5,5.245,5.245,0,0,0,0-7.412,5.114,5.114,0,0,0-3.763-1.537,5.226,5.226,0,0,0-3.8,1.537,5.163,5.163,0,0,0,0,7.412,5.285,5.285,0,0,0,3.8,1.5h0Zm-4.53,7.787v27.324a0.65,0.65,0,0,1-.523.547,2.773,2.773,0,0,1-1.01.2v1.3h11.986v-1.3a2.769,2.769,0,0,1-1.01-.2,0.65,0.65,0,0,1-.523-0.547V241.107a0.649,0.649,0,0,1,.523-0.546,2.751,2.751,0,0,1,1.01-.205v-1.3H325.526v1.3a2.755,2.755,0,0,1,1.01.205,0.649,0.649,0,0,1,.523.546h0Zm34.218-3.211a2,2,0,0,1-.209.854,0.633,0.633,0,0,1-.558.444h-5.018V231.2a3.9,3.9,0,0,1,.837-2.493,3.77,3.77,0,0,1,2.439-1.332,0.744,0.744,0,0,1,.662.512,2.448,2.448,0,0,1,.244,1.059L361,228.88l-0.627-11.955-1.324.137a2.776,2.776,0,0,1-.175.956,0.583,0.583,0,0,1-.522.478,11.662,11.662,0,0,0-7.945,3.04,9.856,9.856,0,0,0-2.927,7.412v10.246h-3.345a0.632,0.632,0,0,1-.558-0.444,2,2,0,0,1-.209-0.854h-1.324v10.042h1.324a2.012,2.012,0,0,1,.209-0.854,0.635,0.635,0,0,1,.558-0.444h3.345v21.791a0.637,0.637,0,0,1-.488.547,2.36,2.36,0,0,1-.906.2v1.3h10.8v-1.3a2.36,2.36,0,0,1-.906-0.2,0.637,0.637,0,0,1-.488-0.547V246.64h5.018a0.636,0.636,0,0,1,.558.444,2.012,2.012,0,0,1,.209.854H362.6V237.9h-1.324Zm21.116-.273a17.4,17.4,0,0,0-8.816,2.22,15.6,15.6,0,0,0-6.028,6.182,18.381,18.381,0,0,0-2.161,8.949,17.027,17.027,0,0,0,2.2,8.573,16.167,16.167,0,0,0,6.237,6.148,18.629,18.629,0,0,0,9.338,2.288q8.223,0,13.1-5.738,0.418-.477,1.463.137l0.767-1.025-7.736-5.943-0.836,1.025a1.584,1.584,0,0,1,.418.444,1.041,1.041,0,0,1,.209.58,1.158,1.158,0,0,1-.139.342,8.658,8.658,0,0,1-3.032,2.049,11.383,11.383,0,0,1-4.216.683,10.814,10.814,0,0,1-6.342-1.844,6.632,6.632,0,0,1-2.927-5.123H399.4a19.933,19.933,0,0,0,.209-2.869,18.4,18.4,0,0,0-2.021-8.607,15.156,15.156,0,0,0-5.924-6.182,18,18,0,0,0-9.268-2.289h0Zm-8.433,13.594a7.732,7.732,0,0,1,2.857-4.748,8.608,8.608,0,0,1,5.645-1.946,9.609,9.609,0,0,1,5.889,1.946,6.634,6.634,0,0,1,2.892,4.748H373.96Z"/>
  </g>
  <g id="Academics">
    <path id="Academics_Inactive_" data-name="Academics (Inactive)" class="cls-1" d="M57.195,117.39a1.672,1.672,0,0,1-.209-0.751,0.857,0.857,0,0,1,.558-0.854,2.979,2.979,0,0,1,1.185-.239v-1.3H42.49v1.3a2.983,2.983,0,0,1,1.185.239,0.859,0.859,0,0,1,.558.854,1.671,1.671,0,0,1-.209.751L24.65,163.568a1.694,1.694,0,0,1-1.673.614v1.3H36.706v-1.3a1.565,1.565,0,0,1-1.011-.307,0.9,0.9,0,0,1-.383-0.717l0.07-.2,3.833-9.632H61.934l3.833,9.632a0.7,0.7,0,0,1-.139.82,1.588,1.588,0,0,1-1.254.409v1.3H78.52v-1.3q-1.464,0-1.673-.614Zm1.6,28.076H42.351L50.574,124.9Zm38.12,21.449a17.55,17.55,0,0,0,7.562-1.366,18.22,18.22,0,0,0,5.4-4.167q0.419-.409,1.534.2l0.836-.957-7.527-6.148-0.836,1.025a1.327,1.327,0,0,1,.488.888,0.462,0.462,0,0,1-.139.342,10.913,10.913,0,0,1-3,1.947,9.609,9.609,0,0,1-3.415.512,9.1,9.1,0,0,1-6.76-2.6,9.357,9.357,0,0,1-2.579-6.9,8.989,8.989,0,0,1,2.683-6.763,9.2,9.2,0,0,1,6.655-2.6,8.505,8.505,0,0,1,6.9,3.006,0.737,0.737,0,0,1-.034.785,2.156,2.156,0,0,1-.593.786L105,145.875l7.527-6.831-0.906-.956a2.636,2.636,0,0,1-.593.41,1.458,1.458,0,0,1-.662.205,0.473,0.473,0,0,1-.348-0.137q-2.162-1.911-3.589-2.971a13.026,13.026,0,0,0-3.763-1.81,18.438,18.438,0,0,0-5.611-.752,16.925,16.925,0,0,0-8.433,2.152,15.832,15.832,0,0,0-6.1,6.148,18.444,18.444,0,0,0-2.265,9.256,15.577,15.577,0,0,0,2.265,8.2,16.784,16.784,0,0,0,14.391,8.129h0Zm56.17-32.857H142.774v4.235a14.049,14.049,0,0,0-11.081-5.055,17.783,17.783,0,0,0-8.5,2.083,16.091,16.091,0,0,0-8.572,14.516,17.443,17.443,0,0,0,2.126,8.744,14.353,14.353,0,0,0,5.993,5.772,19.116,19.116,0,0,0,8.955,2.015,14.592,14.592,0,0,0,11.081-4.645v3.757h10.314v-1.3a2.769,2.769,0,0,1-1.01-.2,0.65,0.65,0,0,1-.523-0.547V136.107a0.649,0.649,0,0,1,.523-0.546,2.751,2.751,0,0,1,1.01-.205v-1.3Zm-20.349,25.07a10.015,10.015,0,0,1-6.934-2.528,9.432,9.432,0,0,1-.07-13.389,10.829,10.829,0,0,1,14.147.069,9.008,9.008,0,0,1,2.753,6.762,8.519,8.519,0,0,1-1.255,4.475,9.3,9.3,0,0,1-3.519,3.347,10.328,10.328,0,0,1-5.122,1.264h0ZM193.578,116.3a0.634,0.634,0,0,1,.488-0.546,2.493,2.493,0,0,1,.976-0.2v-1.3h-11.36v1.3a2.5,2.5,0,0,1,.976.2,0.637,0.637,0,0,1,.488.546v19.81a15.889,15.889,0,0,0-9.966-3.211,19.188,19.188,0,0,0-9.095,2.152,16.156,16.156,0,0,0-6.411,6.012,16.747,16.747,0,0,0-2.335,8.846,16.279,16.279,0,0,0,2.3,8.675,15.471,15.471,0,0,0,6.342,5.806,20.045,20.045,0,0,0,9.2,2.05,15.456,15.456,0,0,0,9.966-3.348v2.391h9.965v-1.3a2.769,2.769,0,0,1-1.01-.2,0.65,0.65,0,0,1-.523-0.547V116.3ZM175.6,159.128a10.281,10.281,0,0,1-7-2.46,8.341,8.341,0,0,1-2.822-6.626,8.98,8.98,0,0,1,2.753-6.8,9.821,9.821,0,0,1,7.073-2.629,9.683,9.683,0,0,1,7.074,2.7,9.2,9.2,0,0,1,2.752,6.865,8.242,8.242,0,0,1-1.289,4.406,9.315,9.315,0,0,1-3.554,3.313,10.272,10.272,0,0,1-4.983,1.23h0Zm41.048-26.5a17.4,17.4,0,0,0-8.816,2.22,15.6,15.6,0,0,0-6.028,6.182,18.381,18.381,0,0,0-2.161,8.949,17.036,17.036,0,0,0,2.2,8.573,16.177,16.177,0,0,0,6.238,6.148,18.629,18.629,0,0,0,9.338,2.288q8.223,0,13.1-5.738,0.418-.477,1.463.137l0.767-1.025-7.736-5.943-0.836,1.025a1.6,1.6,0,0,1,.418.444,1.041,1.041,0,0,1,.209.58,1.19,1.19,0,0,1-.139.342,8.658,8.658,0,0,1-3.032,2.049,11.383,11.383,0,0,1-4.216.683,10.812,10.812,0,0,1-6.342-1.844,6.632,6.632,0,0,1-2.927-5.123H233.65a19.933,19.933,0,0,0,.209-2.869,18.4,18.4,0,0,0-2.021-8.607,15.156,15.156,0,0,0-5.924-6.182,18,18,0,0,0-9.268-2.289h0Zm-8.433,13.594a7.732,7.732,0,0,1,2.857-4.748,8.608,8.608,0,0,1,5.645-1.946,9.609,9.609,0,0,1,5.889,1.946,6.634,6.634,0,0,1,2.892,4.748H208.213Zm81.328,0.888a14.908,14.908,0,0,0-3.2-9.905q-3.207-3.825-9.757-3.825a11.606,11.606,0,0,0-5.889,1.5,9.454,9.454,0,0,0-3.868,4.031,11.123,11.123,0,0,0-4.425-4.065,14.411,14.411,0,0,0-6.725-1.468,10.178,10.178,0,0,0-7.108,2.527v-1.844H237.831v1.3a2.76,2.76,0,0,1,1.011.205,0.65,0.65,0,0,1,.523.546v27.324a0.669,0.669,0,0,1-.558.547,3.056,3.056,0,0,1-1.045.2v1.3h12.4v-1.3a3.047,3.047,0,0,1-1.045-.2,0.666,0.666,0,0,1-.557-0.547V147.993a9.562,9.562,0,0,1,1.777-5.431,4.936,4.936,0,0,1,4.007-1.81q3.2,0,4.39,2.357a13.631,13.631,0,0,1,1.185,6.114v14.208a0.65,0.65,0,0,1-.523.547,2.942,2.942,0,0,1-1.08.2v1.3h12.2v-1.3a2.942,2.942,0,0,1-1.08-.2,0.65,0.65,0,0,1-.523-0.547V149.769q0-4.509,1.533-6.763a4.928,4.928,0,0,1,4.321-2.254q5.714,0,5.715,8.471v14.208a0.651,0.651,0,0,1-.523.547,2.95,2.95,0,0,1-1.08.2v1.3h12.265v-1.3a2.942,2.942,0,0,1-1.08-.2,0.651,0.651,0,0,1-.523-0.547V147.1ZM303.2,128.32a5.171,5.171,0,0,0,3.763-1.5,5.245,5.245,0,0,0,0-7.412,5.114,5.114,0,0,0-3.763-1.537,5.23,5.23,0,0,0-3.8,1.537,5.163,5.163,0,0,0,0,7.412,5.289,5.289,0,0,0,3.8,1.5h0Zm-4.53,7.787v27.324a0.651,0.651,0,0,1-.523.547,2.773,2.773,0,0,1-1.01.2v1.3h11.986v-1.3a2.769,2.769,0,0,1-1.01-.2,0.65,0.65,0,0,1-.523-0.547V136.107a0.649,0.649,0,0,1,.523-0.546,2.751,2.751,0,0,1,1.01-.205v-1.3H297.138v1.3a2.755,2.755,0,0,1,1.01.205,0.65,0.65,0,0,1,.523.546h0Zm32.336,30.808a17.542,17.542,0,0,0,7.561-1.366,18.21,18.21,0,0,0,5.4-4.167q0.418-.409,1.533.2l0.837-.957-7.527-6.148-0.836,1.025a1.331,1.331,0,0,1,.488.888,0.459,0.459,0,0,1-.14.342,10.91,10.91,0,0,1-3,1.947,9.609,9.609,0,0,1-3.415.512,9.1,9.1,0,0,1-6.76-2.6,9.359,9.359,0,0,1-2.579-6.9,8.989,8.989,0,0,1,2.683-6.763,9.2,9.2,0,0,1,6.656-2.6,8.505,8.505,0,0,1,6.9,3.006,0.736,0.736,0,0,1-.035.785,2.143,2.143,0,0,1-.592.786l0.906,0.956,7.526-6.831-0.906-.956a2.6,2.6,0,0,1-.592.41,1.458,1.458,0,0,1-.662.205,0.473,0.473,0,0,1-.348-0.137q-2.161-1.911-3.589-2.971a13.033,13.033,0,0,0-3.764-1.81,18.432,18.432,0,0,0-5.61-.752,16.922,16.922,0,0,0-8.432,2.152,15.829,15.829,0,0,0-6.1,6.148,18.448,18.448,0,0,0-2.265,9.256,15.58,15.58,0,0,0,2.265,8.2,16.785,16.785,0,0,0,14.391,8.129h0Zm31.988-.41q5.853,0,9.408-2.63t3.554-8.163a8.246,8.246,0,0,0-2.788-6.319,19.16,19.16,0,0,0-7.666-4q-2.649-.819-3.937-1.366a5.068,5.068,0,0,1-1.777-1.093,2.068,2.068,0,0,1-.488-1.434,1.831,1.831,0,0,1,.836-1.64,4.176,4.176,0,0,1,2.3-.546,6.581,6.581,0,0,1,2.544.478,11.015,11.015,0,0,1,2.4,1.434,0.713,0.713,0,0,1,.174.718,1.438,1.438,0,0,1-.383.717l0.976,0.82,6.272-6.968-1.046-.888a1.526,1.526,0,0,1-.487.41,1.374,1.374,0,0,1-.7.205,0.405,0.405,0,0,1-.279-0.069,24.879,24.879,0,0,0-4.878-2.664,12.95,12.95,0,0,0-4.53-.751,10.912,10.912,0,0,0-7.806,2.7,9.2,9.2,0,0,0-2.857,7,7.424,7.424,0,0,0,2.23,5.7q2.23,2.084,7.178,3.381a29.4,29.4,0,0,1,5.471,1.879,2.651,2.651,0,0,1,1.638,2.425q0,3.483-5.366,3.483a9.167,9.167,0,0,1-4.147-.99,20.179,20.179,0,0,1-4.286-3.04,0.656,0.656,0,0,1-.1-0.751,2.762,2.762,0,0,1,.453-0.82l-0.976-.888-6.969,7.787,0.976,0.82a1.769,1.769,0,0,1,1.184-.615,0.48,0.48,0,0,1,.349.137,29.747,29.747,0,0,0,6.655,4.1A17.079,17.079,0,0,0,363,166.505h0Z"/>
  </g>
  <g id="Home">
    <path id="Home_Active_" data-name="Home (Active)" class="cls-2" d="M158.085,1.248h-13.1v1.3a3.333,3.333,0,0,1,1.08.2,0.687,0.687,0,0,1,.593.546V21.263H123.24V3.3a0.685,0.685,0,0,1,.592-0.546,3.329,3.329,0,0,1,1.081-.2v-1.3h-13.1v1.3a3.338,3.338,0,0,1,1.08.2,0.687,0.687,0,0,1,.592.546V50.431a0.686,0.686,0,0,1-.592.547,3.339,3.339,0,0,1-1.08.2v1.3h13.1v-1.3a3.33,3.33,0,0,1-1.081-.2,0.684,0.684,0,0,1-.592-0.547V29.8h23.416v20.63a0.686,0.686,0,0,1-.593.547,3.334,3.334,0,0,1-1.08.2v1.3h13.1v-1.3a3.325,3.325,0,0,1-1.08-.2,0.684,0.684,0,0,1-.593-0.547V3.3a0.686,0.686,0,0,1,.593-0.546,3.324,3.324,0,0,1,1.08-.2v-1.3ZM180.037,53.3a17.965,17.965,0,0,0,9.339-2.357A15.919,15.919,0,0,0,195.4,44.8a16.6,16.6,0,0,0,2.056-8.026,16.125,16.125,0,0,0-8.572-14.584,19.437,19.437,0,0,0-17.91.068A15.9,15.9,0,0,0,164.81,28.3a16.722,16.722,0,0,0-2.195,8.47,16.479,16.479,0,0,0,2.195,8.471,15.624,15.624,0,0,0,6.133,5.909,18.657,18.657,0,0,0,9.094,2.152h0Zm0-7.856a9.143,9.143,0,0,1-6.411-2.357,8.139,8.139,0,0,1-2.579-6.319,8.332,8.332,0,0,1,2.579-6.25,8.86,8.86,0,0,1,6.411-2.493,9.039,9.039,0,0,1,6.656,2.527,8.673,8.673,0,0,1,2.543,6.421,7.954,7.954,0,0,1-2.543,6.114,9.406,9.406,0,0,1-6.656,2.357h0ZM253.491,34.1a14.909,14.909,0,0,0-3.206-9.9q-3.207-3.825-9.757-3.825a11.607,11.607,0,0,0-5.889,1.5,9.444,9.444,0,0,0-3.867,4.03,11.128,11.128,0,0,0-4.426-4.065,14.4,14.4,0,0,0-6.725-1.469,10.178,10.178,0,0,0-7.108,2.528V21.058H201.781v1.3a2.761,2.761,0,0,1,1.01.205,0.65,0.65,0,0,1,.523.546V50.431a0.666,0.666,0,0,1-.558.547,3.044,3.044,0,0,1-1.045.2v1.3h12.405v-1.3a3.041,3.041,0,0,1-1.046-.2,0.665,0.665,0,0,1-.557-0.547V34.993a9.558,9.558,0,0,1,1.777-5.431,4.938,4.938,0,0,1,4.007-1.81q3.206,0,4.391,2.357a13.645,13.645,0,0,1,1.184,6.114V50.431a0.649,0.649,0,0,1-.522.547,2.94,2.94,0,0,1-1.081.2v1.3h12.2v-1.3a2.931,2.931,0,0,1-1.08-.2,0.65,0.65,0,0,1-.523-0.547V36.769q0-4.508,1.534-6.763a4.925,4.925,0,0,1,4.32-2.254q5.714,0,5.715,8.471V50.431a0.649,0.649,0,0,1-.523.547,2.934,2.934,0,0,1-1.08.2v1.3h12.265v-1.3a2.934,2.934,0,0,1-1.08-.2,0.649,0.649,0,0,1-.522-0.547V34.1Zm22.858-14.482a17.4,17.4,0,0,0-8.816,2.22,15.594,15.594,0,0,0-6.028,6.182,18.378,18.378,0,0,0-2.16,8.949,17.026,17.026,0,0,0,2.195,8.573,16.167,16.167,0,0,0,6.237,6.148,18.627,18.627,0,0,0,9.338,2.288q8.223,0,13.1-5.738,0.418-.477,1.464.137l0.766-1.025-7.735-5.943-0.837,1.025a1.6,1.6,0,0,1,.419.444,1.049,1.049,0,0,1,.209.581,1.18,1.18,0,0,1-.14.342,8.658,8.658,0,0,1-3.031,2.049,11.4,11.4,0,0,1-4.217.683,10.811,10.811,0,0,1-6.341-1.844,6.626,6.626,0,0,1-2.927-5.123h25.506a19.782,19.782,0,0,0,.209-2.869,18.4,18.4,0,0,0-2.021-8.607,15.164,15.164,0,0,0-5.923-6.182,18.011,18.011,0,0,0-9.269-2.288h0Zm-8.433,13.594a7.732,7.732,0,0,1,2.858-4.748,8.608,8.608,0,0,1,5.645-1.947,9.609,9.609,0,0,1,5.888,1.947,6.635,6.635,0,0,1,2.893,4.748H267.916Z"/>
  </g>
</svg>
